<svg xmlns="http://www.w3.org/2000/svg" xmlns:xlink="http://www.w3.org/1999/xlink" width="408" height="440" viewBox="0 0 408 440">
  <defs>
    <clipPath id="clip-path">
      <rect id="長方形_383" data-name="長方形 383" width="408" height="440" transform="translate(-3063 2001)" fill="#fff" stroke="#707070" stroke-width="1"/>
    </clipPath>
  </defs>
  <g id="マスクグループ_43" data-name="マスクグループ 43" transform="translate(3063 -2001)" clip-path="url(#clip-path)">
    <g id="chara_hanage" transform="translate(-2992.501 2095.102)">
      <path id="パス_32289" data-name="パス 32289" d="M267.37,55.838s25.79-29.925,57.182-40.433c25.991-8.748,36.666,4.809,34.6,11.191-4.109,12.782-17.472,7.43-38.313,9.754-12.7,1.319-37.468,9.935-47.36,21.8Z" transform="translate(-92.397 -4.339)"/>
      <path id="パス_32290" data-name="パス 32290" d="M276.317,71.226s28.007-11.547,46.466-13.137c16.91-1.423,25.833,7.357,23.771,13.742-2.091,6.372-13.4,4.273-30.275.269-14.281-3.382-28.462-2.2-36.938,2.12Z" transform="translate(-95.489 -20.024)"/>
      <path id="パス_32291" data-name="パス 32291" d="M267.37,51.5s2.78-30.945,17.222-44.37c18.137-16.953,29.062.387,11.894,9.919C282.169,24.936,275.2,42.3,273.47,53.815Z" transform="translate(-92.397 0)"/>
      <path id="パス_32292" data-name="パス 32292" d="M213.924,77.9s-64.81-32.815-117.592,1.27c0,0-61.869,42.99-26.527,123.832,0,0,9.033,40.417,27.582,43.862,0,0-9.612,22.065,20.677,22.663l135.621-.25s3.2-7.045-12.225-8.587c0,0-13.019-9.561-15.144-13.056s-9.59-2.6-13.008-1.319,13.341-10.163,5.721-15.844c-7.666-5.726-9.706-7-12.712-4.593C206.317,225.889,283.142,140.817,213.924,77.9Z" transform="translate(-20.355 -22.011)" fill="#8fc31f"/>
      <path id="パス_32293" data-name="パス 32293" d="M172.624,147.232c8.073,5.164,18-2.882,27.568-26.182,14.838-35.926,2.79-54.961-17.515-24C162.3,128.278,167.616,144.194,172.624,147.232Z" transform="translate(-58.073 -28.166)"/>
      <path id="パス_32294" data-name="パス 32294" d="M233.3,162.186s-2.556,35.14-46.17,74.449c0,0-3.132,2.718-2.395,4.165s2.847,1.092,5.422-1.418c0,0,34.691-24.075,49.647-61.438,11.638-28.9,9.824-67.151-10.825-94.555-13.53-17.886-36.542-32.756-72.089-33.795C120.1,48.461,68.167,67.959,58.827,136.049c-5.078,36.836,12.378,89.757,31.666,109.428a16.977,16.977,0,0,0,3.713,15.179c3.407,3.711,10.422,7.621,27.665,8.207,7.039.231,32.178-.468,59.154-.468,28.079.07,58.072.807,70.5.425,10.648-.283,10.933-13.777-.094-15.225-7.44-1.033-15.05-.891-17.8-6.706-2.47-5.4-7.136-11.132-14.262-11.132l-7.857,8.611a11.66,11.66,0,0,1,9.639-1.811c5.471,2.131,5.339,4.327,8.213,8.589s6.385,5.651,11.794,6.052c4.276.366,8.57,1.076,8.18,3.525,0,0,.807,3.108-7.134,2.812,0,0-29.062-.167-63.2-.428-22.434-.143-47.855,1.329-63.936-1.02-8.188-1.211-13.6-4.036-15.761-7.311a11.033,11.033,0,0,1-.56-10.9s2.422-3.426-1.211-3.88c0,0-13.032,2.807-28.709-53.355,0,0-20.532-60.131,22.49-104.2,25.563-26.2,71.118-28.088,99.079-15.607C218.779,79.519,243.955,118.8,233.3,162.186Z" transform="translate(-20.022 -17.125)"/>
      <path id="パス_32295" data-name="パス 32295" d="M83.61,130.248c3.323.7,9.068,2.928,20.182-19.708,17.138-34.809,4.628-36.389-9.816-16.2C73.473,122.961,79.538,129.387,83.61,130.248Z" transform="translate(-27.475 -28.088)"/>
      <path id="パス_32296" data-name="パス 32296" d="M274.327,138.893c-6.385-.616-11.522,7.05-13.137,26.608-2.266,28.254,12.647,33.273,18.457,7.37C285.034,149.075,280.823,139.6,274.327,138.893Z" transform="translate(-90.182 -47.989)"/>
      <path id="パス_32297" data-name="パス 32297" d="M275.891,148.017c-3.926-.4-7.155,5.46-8.439,20.117-1.792,21.175,6.221,28.4,11.216,5.269C282.5,155.568,279.892,148.458,275.891,148.017Z" transform="translate(-92.337 -51.148)" fill="#9c308d"/>
      <path id="パス_32298" data-name="パス 32298" d="M230.284,180.091c-5.3-.417-9.545,7.489-10.7,27.035-1.711,28.306,10.764,32.764,15.44,6.682C239.3,189.856,235.762,180.5,230.284,180.091Z" transform="translate(-75.827 -62.233)"/>
      <path id="パス_32299" data-name="パス 32299" d="M231.641,189.233c-3.264-.226-5.947,5.71-6.875,20.408-1.345,21.2,5.438,28.136,9.418,4.814C237.216,196.485,235,189.507,231.641,189.233Z" transform="translate(-77.614 -65.395)" fill="#9c308d"/>
      <path id="パス_32300" data-name="パス 32300" d="M264.745,234.546c-3.512-1.7-8.1-.024-11.81,10.54-7.833,22.6,4.155,21.907,10.1,10C269.265,242.579,268.531,236.3,264.745,234.546Z" transform="translate(-86.519 -80.859)"/>
      <path id="パス_32301" data-name="パス 32301" d="M264.018,241.433c-2.3-.57-4.806,2.365-6.943,10.462-3.178,11.762-.1,12.865,5.142,3.584C267.4,246.387,266.394,242.008,264.018,241.433Z" transform="translate(-88.395 -83.413)" fill="#9c308d"/>
      <path id="パス_32302" data-name="パス 32302" d="M43.541,214S18.107,228.583,6.119,266.635c0,0-.982,4.036-3.867,3.31,0,0-3.539-.842-1.746-5.672,0,0,10.955-35.818,38.62-54.168a4.305,4.305,0,0,1,5.261-1.187S48.277,212.29,43.541,214Z" transform="translate(0 -72.049)"/>
      <path id="パス_32303" data-name="パス 32303" d="M49.05,226.611S28.648,245.049,19,283.728c0,0-.463,4.106-3.382,3.791,0,0-3.678-.379-2.5-5.309,0,0,7.572-36,31.072-58.914a4.34,4.34,0,0,1,5.067-1.884S53.536,224.254,49.05,226.611Z" transform="translate(-4.452 -76.443)"/>
      <path id="パス_32304" data-name="パス 32304" d="M66.874,226.22S48.193,244.144,39.7,284.75c0,0-.269,4.16-3.191,3.972,0,0-3.705-.167-2.815-5.223,0,0,5.78-36.128,28.128-60.327a4.252,4.252,0,0,1,4.938-2.107S71.182,223.685,66.874,226.22Z" transform="translate(-11.595 -76.34)"/>
      <path id="パス_32305" data-name="パス 32305" d="M138.435,235.3s24.63,15.987,34.347,54.665c0,0,.831,4.106,3.716,3.5,0,0,3.619-.654,2.077-5.514,0,0-8.9-36.4-35.52-56.328a4.23,4.23,0,0,0-5.15-1.472S133.866,233.318,138.435,235.3Z" transform="translate(-47.088 -79.418)"/>
      <path id="パス_32306" data-name="パス 32306" d="M127.519,244.247s22.16,19.256,26.408,58.9c0,0,.2,4.112,3.121,4.036,0,0,3.678-.2,2.871-5.21,0,0-3.751-37.242-27.331-60.7a4.23,4.23,0,0,0-4.916-2.153S123.235,241.7,127.519,244.247Z" transform="translate(-43.424 -82.584)"/>
      <path id="パス_32307" data-name="パス 32307" d="M108.931,237.007s18.443,22.9,15.806,62.59c0,0-.428,4.2,2.457,4.5,0,0,3.657.517,3.657-4.6,0,0,2.691-37.355-16.414-64.509a4.375,4.375,0,0,0-4.475-3.051S105.131,233.762,108.931,237.007Z" transform="translate(-37.141 -80.152)"/>
      <path id="パス_32308" data-name="パス 32308" d="M68.429,207.131c-31.109-8.794-50.761-30.084-39.51-56.659,9.232-21.8,42.7-29.8,71.637-19.105,34.764,12.774,41.825,35.592,35.654,55.021C129.076,208.888,98.053,215.564,68.429,207.131Z" transform="translate(-8.888 -43.772)"/>
      <path id="パス_32309" data-name="パス 32309" d="M73.65,202.132c-22.978-6.932-42.573-22.994-33.515-46.326,6.59-17.222,35.283-23.68,59.506-14.735,29.172,10.747,35.345,29.379,30.407,44.986C124.3,204.214,98.444,209.55,73.65,202.132Z" transform="translate(-13.089 -47.365)" fill="#e4007f"/>
      <path id="パス_32310" data-name="パス 32310" d="M276.541,312.368a11.033,11.033,0,0,1,17.967-1.7c9.093,11.571-10.085,24.382-10.085,24.382s-3.089,3.52-5.382,1.6c.223.25-1.924-.129,1.765-3.875a69.766,69.766,0,0,0,7.489-9.311c2.457-4.106,2.85-10.182-6.065-10.92,0,0-8.057,2.535-11.439,7.535Z" transform="translate(-93.579 -106.027)"/>
    </g>
  </g>
</svg>
